<?xml version="1.0" standalone="no"?>
<!DOCTYPE svg PUBLIC "-//W3C//DTD SVG 20010904//EN"
 "http://www.w3.org/TR/2001/REC-SVG-20010904/DTD/svg10.dtd">
<svg version="1.0" xmlns="http://www.w3.org/2000/svg"
 width="700.000000pt" height="700.000000pt" viewBox="0 0 700.000000 700.000000"
 preserveAspectRatio="xMidYMid meet">
<metadata>
Created by potrace 1.14, written by Peter Selinger 2001-2017
</metadata>
<g transform="translate(0.000000,700.000000) scale(0.100000,-0.100000)"
fill="#000000" stroke="none">
<path d="M4208 6718 c-16 -10 -83 -29 -123 -34 -83 -11 -110 -18 -238 -60
-107 -36 -146 -54 -175 -80 -36 -34 -60 -48 -134 -78 -21 -8 -59 -35 -85 -59
-27 -24 -118 -98 -203 -166 -203 -159 -222 -178 -381 -364 -92 -108 -146 -181
-172 -233 -20 -41 -48 -87 -62 -102 -33 -35 -123 -170 -165 -247 -18 -33 -52
-77 -76 -98 -39 -35 -74 -106 -74 -151 0 -8 -22 -39 -49 -69 -28 -29 -59 -77
-71 -106 -11 -29 -38 -85 -60 -124 -21 -40 -47 -101 -56 -137 -10 -36 -33 -91
-52 -123 -61 -105 -130 -273 -171 -417 -5 -19 -23 -71 -40 -114 -17 -44 -32
-91 -35 -105 -2 -14 -16 -65 -30 -114 -14 -48 -28 -111 -31 -140 -28 -328 -27
-746 4 -853 4 -16 6 -54 3 -84 -9 -88 -5 -156 12 -233 24 -107 28 -132 50
-304 2 -15 7 -48 11 -73 4 -25 7 -49 7 -55 -4 -88 -2 -149 8 -190 6 -27 13
-59 16 -70 12 -61 144 -436 184 -526 127 -283 248 -469 400 -619 68 -67 97
-89 140 -104 30 -10 74 -31 96 -47 191 -131 471 -192 756 -165 88 8 216 38
281 64 16 7 60 19 100 27 39 8 75 19 81 25 5 5 15 10 22 10 16 0 219 125 269
165 57 46 144 133 186 185 44 55 109 148 109 155 0 3 5 11 10 18 43 50 100
160 110 212 7 35 28 87 51 125 28 48 41 83 48 132 5 37 21 96 34 130 14 35 31
92 37 128 7 36 23 88 36 115 24 50 28 66 39 160 4 28 11 68 17 90 6 22 12 72
14 110 2 39 7 99 11 135 4 36 6 103 5 150 -1 58 4 103 16 141 12 39 17 84 16
145 -4 190 -13 395 -18 411 -3 10 -7 36 -11 58 -3 22 -11 57 -17 78 -8 27 -8
55 0 105 6 37 10 97 8 134 -4 77 11 160 42 233 18 43 50 144 56 179 1 6 11 29
23 51 23 45 50 120 58 162 3 16 7 37 10 48 26 108 36 137 63 180 33 52 55 139
67 257 3 37 25 142 47 235 41 168 45 196 35 287 -3 27 -1 63 4 80 16 52 28
515 15 576 -39 189 -105 399 -157 502 -36 70 -194 232 -283 289 -54 36 -181
91 -237 104 -80 18 -223 44 -274 50 -96 12 -113 12 -127 3z"/>
</g>
</svg>
