<?xml version="1.0" encoding="UTF-8"?>
<svg width="35px" height="61px" viewBox="0 0 35 61" version="1.1" xmlns="http://www.w3.org/2000/svg" xmlns:xlink="http://www.w3.org/1999/xlink">
    <title>O Ghost</title>
    <g id="Page-1" stroke="none" stroke-width="1" fill="none" fill-rule="evenodd">
        <g id="logo" transform="translate(-66.000000, -66.003021)" fill-rule="nonzero">
            <g id="O-Ghost" transform="translate(66.469030, 66.113021)">
                <path d="M33.5309698,16.15 C33.5309698,15.76 33.3509698,15.31 33.3809698,14.89 C33.4109698,14.47 33.5609698,14.11 33.5809698,13.69 C33.6809698,12.42 33.5809698,11.33 33.7309698,10.03 C33.5797054,8.35852606 33.1750777,6.71978419 32.5309698,5.17 C32.2726548,4.32181203 31.772149,3.56757764 31.0909698,3 C29.4809698,0.77 26.4809698,0.3 23.9109698,0 C23.4879753,0.0968262827 23.0706693,0.217010406 22.6609698,0.36 C21.3802419,0.533714532 20.1268353,0.86974848 18.9309698,1.36 C18.5609698,1.54 18.3309698,1.94 17.9309698,2.16 C17.5309698,2.38 17.1209698,2.45 16.7709698,2.68 C16.4209698,2.91 16.1809698,3.27 15.8509698,3.53 C14.8509698,4.25 13.9109698,5.14 12.8509698,5.83 C11.6309698,6.98 10.6709698,8.36 9.5409698,9.58 C9.2909698,9.91 9.2609698,10.4 9.0209698,10.74 C8.22355256,11.7030349 7.54841866,12.7610805 7.0109698,13.89 C6.7809698,14.25 6.3309698,14.46 6.1209698,14.82 C5.9109698,15.18 5.9109698,15.67 5.7009698,16.04 C5.4909698,16.41 5.0709698,16.65 4.8709698,17.04 C4.6709698,17.43 4.5809698,17.84 4.3909698,18.22 C3.89025751,18.9173345 3.54887602,19.7161672 3.3909698,20.56 C2.4858196,22.0141033 1.81116816,23.5995342 1.3909698,25.26 C0.948596636,26.4495214 0.568087639,27.6611422 0.2509698,28.89 C-0.032393832,31.4704169 -0.0759134005,34.0715481 0.1209698,36.66 C0.1209698,37.09 0.2609698,37.52 0.2909698,37.94 C0.3209698,38.36 0.1209698,38.81 0.1509698,39.24 C0.1809698,39.67 0.3509698,40.1 0.3909698,40.52 C0.7509698,41.77 0.7809698,43.09 1.0309698,44.36 C1.1009698,44.8 0.9009698,45.26 1.0309698,45.68 C1.42414076,47.3715021 1.90817584,49.0405886 2.4809698,50.68 C3.6709698,53.48 5.0709698,56.35 7.4009698,58.33 C7.80176162,58.5432784 8.21596431,58.7303376 8.6409698,58.89 C9.72278292,59.6893925 10.9700242,60.2361284 12.2909698,60.49 C14.5628503,60.9724923 16.9261642,60.7813419 19.0909698,59.94 C20.015181,59.841025 20.8958522,59.4956637 21.6409698,58.94 C22.4478707,58.5324146 23.1893815,58.0066161 23.8409698,57.38 C25.0733544,56.1506485 26.1118647,54.7412417 26.9209698,53.2 C27.1109698,52.83 27.0409698,52.35 27.2209698,51.95 C27.4009698,51.55 27.7309698,51.25 27.8909698,50.85 C28.0509698,50.45 27.9609698,50 28.0909698,49.59 C28.448907,48.8302267 28.6915743,48.0213358 28.8109698,47.19 C28.9109698,46.79 29.2109698,46.44 29.3009698,46.04 C29.3888269,45.2231668 29.5223694,44.411896 29.7009698,43.61 C29.6788937,42.7856317 29.7425692,41.9612014 29.8909698,41.15 C29.8909698,40.74 29.7809698,40.31 29.8009698,39.91 C29.8209698,39.51 30.0809698,39.1 30.0909698,38.7 C30.1631915,37.8767288 30.1397013,37.0478596 30.0209698,36.23 C30.0790427,34.9773378 29.9131083,33.724364 29.5309698,32.53 C29.5419809,32.1136102 29.6058249,31.7003041 29.7209698,31.3 C29.6116396,30.4916798 29.6798918,29.6692407 29.9209698,28.89 C30.2590434,28.1574502 30.5139672,27.3893245 30.6809698,26.6 C30.9540514,26.102985 31.1592149,25.5715778 31.2909698,25.02 L31.4109698,24.49 C31.5007833,24.037693 31.6142727,23.5904112 31.7509698,23.15 C31.8709698,22.78 32.2109698,22.47 32.3309698,22.07 C32.5440686,21.2860988 32.6714809,20.4813894 32.7109698,19.67 C33.0409698,18.52 33.2109698,17.3 33.5309698,16.15 Z" id="Path" fill="#000000"></path>
                <g id="o-eyes" transform="translate(8.424607, 14.775267)" fill="#FFFFFF">
                    <path d="M14.8163629,1.59473348 C15.1563629,2.09473348 14.9663629,2.81473348 14.9663629,3.43473348 C14.9851637,4.68205892 14.3113719,5.83713049 13.2163629,6.43473348 C11.5263629,7.06473348 9.07636285,6.83473348 8.00636285,5.22473348 C7.40730883,4.09234896 7.46287146,2.72542101 8.15185523,1.6453924 C8.84083899,0.565363799 10.0569825,-0.0611935738 11.3363629,0.00473347575 C11.9740141,0.110949245 12.5792266,0.36055667 13.1063629,0.734733476 C13.6863629,0.964733476 14.4663629,1.11473348 14.8163629,1.59473348 Z" id="Path"></path>
                    <path d="M5.25636285,1.05473348 C5.90444699,1.50563638 6.26276765,2.26802076 6.19636285,3.05473348 C6.24163255,3.87236614 6.01289623,4.68174081 5.54636285,5.35473348 C4.38636285,6.41473348 2.25636285,6.94473348 0.99636285,5.93473348 C-2.04363715,3.61473348 2.59636285,-1.61526652 5.25636285,1.05473348 Z" id="Path"></path>
                </g>
            </g>
        </g>
    </g>
</svg>